<?xml version="1.0" encoding="utf-8"?>
<!-- Generator: Adobe Illustrator 21.1.0, SVG Export Plug-In . SVG Version: 6.00 Build 0)  -->
<svg version="1.1" id="Layer_1" xmlns="http://www.w3.org/2000/svg" xmlns:xlink="http://www.w3.org/1999/xlink" x="0px" y="0px"
	 viewBox="0 0 24 24" style="enable-background:new 0 0 24 24;" xml:space="preserve">
<path d="M12,1.4C6.155,1.4,1.4,6.155,1.4,12S6.155,22.6,12,22.6S22.6,17.845,22.6,12S17.845,1.4,12,1.4z M12,21.4
	c-5.184,0-9.4-4.217-9.4-9.4c0-5.183,4.217-9.4,9.4-9.4s9.4,4.217,9.4,9.4C21.4,17.184,17.184,21.4,12,21.4z M12.8,16.25
	c0,0.443-0.358,0.801-0.8,0.801s-0.8-0.359-0.8-0.801s0.358-0.801,0.8-0.801S12.8,15.808,12.8,16.25z M15.1,9.448
	c0,1.523-1.076,2.783-2.5,3.063v1.458c0,0.331-0.269,0.6-0.6,0.6s-0.6-0.269-0.6-0.6V11.97c0-0.332,0.269-0.6,0.6-0.6
	c1.048,0,1.9-0.852,1.9-1.9c0-1.069-0.853-1.921-1.9-1.921s-1.9,0.852-1.9,1.9c0,0.332-0.269,0.61-0.6,0.61S8.9,9.801,8.9,9.469
	V9.448c0-1.709,1.391-3.1,3.1-3.1S15.1,7.739,15.1,9.448z"/>
</svg>
