<?xml version="1.0" encoding="utf-8"?>
<!-- Generator: Adobe Illustrator 21.1.0, SVG Export Plug-In . SVG Version: 6.00 Build 0)  -->
<svg version="1.1" id="Layer_1" xmlns="http://www.w3.org/2000/svg" xmlns:xlink="http://www.w3.org/1999/xlink" x="0px" y="0px"
	 viewBox="0 0 24 24" style="enable-background:new 0 0 24 24;" xml:space="preserve">
<path d="M12,1.4C6.155,1.4,1.4,6.155,1.4,12S6.155,22.6,12,22.6S22.6,17.845,22.6,12S17.845,1.4,12,1.4z M12,21.4
	c-5.183,0-9.4-4.217-9.4-9.4S6.817,2.6,12,2.6s9.4,4.217,9.4,9.4S17.183,21.4,12,21.4z M15.253,9.596L12.848,12l2.405,2.404
	c0.234,0.233,0.234,0.613,0,0.848c-0.117,0.117-0.271,0.176-0.424,0.176s-0.307-0.059-0.424-0.176L12,12.848l-2.404,2.404
	c-0.117,0.117-0.271,0.176-0.424,0.176c-0.154,0-0.307-0.059-0.424-0.176c-0.234-0.234-0.234-0.614,0-0.848L11.152,12L8.747,9.596
	c-0.234-0.233-0.234-0.613,0-0.848s0.614-0.234,0.849,0L12,11.152l2.404-2.404c0.235-0.234,0.615-0.233,0.849,0
	C15.487,8.982,15.487,9.362,15.253,9.596z"/>
</svg>
